<!DOCTYPE svg PUBLIC "-//W3C//DTD SVG 20010904//EN" "http://www.w3.org/TR/2001/REC-SVG-20010904/DTD/svg10.dtd">
<svg version="1.0" xmlns="http://www.w3.org/2000/svg" width="500px" height="500px" viewBox="0 0 5000 5000" preserveAspectRatio="xMidYMid meet">
<g id="layer101" stroke="#ffffff" stroke-width="50">
<path d="M2251 3883 c-12 -23 -53 -52 -246 -177 -88 -56 -172 -114 -187 -129 l-28 -26 1 -1153 c1 -847 4 -1155 13 -1160 6 -4 28 -8 49 -8 100 0 289 -59 390 -121 26 -16 52 -29 58 -29 6 0 9 30 8 83 -2 45 -2 675 -1 1400 1 725 0 1323 -4 1328 -9 15 -43 10 -53 -8z"/>
<!--<path d="M2811 3623 c-95 -48 -96 -209 -2 -258 42 -21 117 -19 156 5 32 20 60 64 50 81 -11 17 -71 10 -90 -11 -37 -41 -95 -12 -95 49 0 70 52 101 94 56 21 -23 29 -26 53 -18 19 7 29 17 31 35 7 59 -123 99 -197 61z"/>-->
<!--<path d="M3144 3629 c-41 -12 -94 -71 -96 -107 -6 -109 31 -164 120 -178 75 -12 158 37 150 88 -4 33 -62 39 -78 8 -9 -17 -19 -20 -48 -18 -43 4 -69 39 -59 80 16 63 72 77 107 28 18 -25 26 -29 48 -24 42 10 47 20 29 58 -26 55 -107 85 -173 65z"/>-->
<!--<path d="M2434 3617 c-2 -7 -3 -73 -2 -147 3 -151 10 -163 60 -106 22 25 34 32 39 24 5 -8 11 -3 18 16 6 15 18 34 26 42 12 13 14 7 17 -43 l3 -58 43 -3 42 -3 1 48 c1 43 2 45 9 18 8 -30 8 -30 9 8 1 23 -3 36 -9 32 -6 -4 -10 28 -10 89 0 119 -8 122 -97 34 l-63 -62 0 62 0 62 -40 0 c-24 0 -43 -5 -46 -13z"/>-->
<path d="M1680 3501 c0 -5 -105 -79 -232 -164 -245 -163 -286 -197 -315 -262 -17 -38 -18 -102 -21 -1052 -2 -831 0 -1013 10 -1013 8 0 36 17 64 38 117 88 296 160 424 171 l75 6 1 1025 c1 564 3 1076 6 1138 3 62 1 115 -3 118 -5 3 -9 1 -9 -5z"/>
<path d="M3419 3333 c-30 -27 -90 -75 -132 -108 -88 -69 -94 -88 -47 -142 36 -40 105 -176 130 -253 16 -49 30 -128 44 -240 5 -50 -11 -204 -29 -275 -23 -90 -107 -256 -169 -334 -166 -207 -416 -331 -671 -331 -53 0 -86 -4 -91 -12 -4 -6 -7 -140 -6 -296 1 -220 4 -287 14 -294 21 -13 192 -10 206 4 7 7 12 26 12 42 1 33 24 138 34 155 4 6 23 13 44 16 20 4 57 13 81 21 49 15 61 11 93 -32 62 -81 104 -124 123 -124 34 0 283 128 300 153 14 21 14 28 0 68 -9 24 -22 58 -29 74 -32 72 -31 78 39 144 36 33 70 61 75 61 6 0 46 -18 90 -40 100 -50 120 -51 157 -2 55 70 153 229 153 247 0 11 -34 52 -76 93 -55 54 -74 78 -68 90 3 10 17 46 29 82 l22 65 106 5 c58 3 111 10 117 16 28 28 47 327 22 356 -7 9 -38 23 -70 32 -31 9 -68 20 -82 24 -20 6 -27 18 -37 62 -7 30 -12 71 -10 90 2 32 10 40 91 94 105 71 104 57 24 257 -61 151 -59 149 -157 130 -119 -23 -113 -25 -173 64 -67 101 -81 104 -159 38z"/>
</g>
<g id="layer102" stroke="#ffffff" stroke-width="50">
<!--<path d="M2105 3768 c-49 -32 -97 -64 -106 -71 -8 -6 -23 -16 -32 -22 -8 -5 -50 -32 -91 -60 l-76 -50 3 -1160 2 -1159 92 -13 c110 -14 223 -51 321 -104 41 -21 75 -39 78 -39 2 0 4 20 4 44 0 34 -6 52 -25 72 -14 15 -25 31 -25 35 0 14 38 10 43 -3 3 -7 6 106 6 251 l1 265 -31 -30 c-28 -26 -30 -27 -19 -5 6 13 9 37 6 55 -3 17 -2 45 3 61 l9 30 2 -30 c2 -30 2 -30 9 5 9 49 1 157 -10 139 -7 -11 -9 -11 -9 3 0 9 6 18 13 21 9 3 9 10 -3 33 -8 16 -16 34 -19 39 -2 6 5 2 16 -7 11 -10 23 -18 26 -18 11 0 8 398 -2 405 -5 3 -6 17 -2 33 10 34 16 273 15 497 -1 94 -3 315 -4 493 0 177 -5 322 -10 322 -5 0 -16 8 -25 17 -14 14 -20 14 -37 4 -12 -8 -23 -9 -27 -3 -3 5 -46 -17 -96 -50z"/>-->
<!--<path d="M1452 3335 c-238 -159 -263 -179 -300 -250 l-27 -50 -3 -1014 -2 -1013 22 16 c169 123 317 188 480 211 37 5 47 10 51 28 8 39 9 2205 0 2209 -4 2 -104 -59 -221 -137z"/>-->
<!--<path d="M3390 3302 c-52 -44 -115 -97 -139 -119 l-44 -39 40 -55 c47 -62 123 -209 123 -237 0 -11 7 -32 15 -49 8 -17 21 -84 29 -149 21 -188 -6 -346 -87 -509 -100 -200 -214 -314 -414 -413 -118 -58 -197 -78 -345 -88 l-108 -7 0 -233 c0 -144 4 -235 10 -239 6 -3 10 0 10 8 0 12 8 12 48 2 26 -7 46 -15 45 -19 -2 -3 -3 -10 -3 -16 0 -5 -7 -10 -16 -10 -9 0 -14 -7 -12 -17 1 -10 -1 -24 -5 -30 -15 -24 4 -33 63 -33 l59 0 9 38 c5 20 15 64 22 97 7 33 14 65 15 72 2 6 23 15 47 19 52 10 44 7 97 24 l43 14 32 -36 c17 -20 48 -56 68 -81 37 -45 69 -60 98 -45 8 4 46 21 84 38 96 43 176 96 176 117 0 10 -11 50 -25 88 -36 102 -34 110 36 183 34 34 67 62 74 62 7 0 56 -20 109 -45 l96 -45 31 35 c64 72 159 222 159 249 0 8 -31 46 -70 85 -38 38 -70 76 -70 82 0 7 12 47 26 89 l25 77 46 7 c25 3 71 6 102 6 31 0 61 4 67 8 17 11 33 91 40 199 7 110 7 112 -62 131 -24 7 -49 23 -58 36 -8 13 -28 27 -44 31 -25 5 -29 10 -31 49 -1 24 -6 57 -10 73 -11 38 -6 84 11 95 18 11 140 86 157 96 13 7 11 21 -13 88 -15 43 -44 119 -64 167 l-37 89 -35 -6 c-19 -3 -66 -12 -105 -20 -38 -8 -74 -10 -79 -6 -4 5 -31 44 -60 87 -28 43 -58 79 -66 81 -8 1 -58 -33 -110 -76z"/>-->
</g>
<g id="layer103" stroke="#ffffff" stroke-width="50">
<!--<path d="M2260 3857 c0 -19 16 -31 24 -18 3 5 -1 14 -9 21 -12 10 -15 10 -15 -3z"/>-->
<!--<path d="M2105 3768 c-49 -32 -97 -64 -106 -71 -8 -6 -23 -16 -32 -22 -8 -5 -50 -32 -91 -60 l-76 -50 0 -812 0 -811 25 11 c27 13 33 32 12 40 -18 7 -20 57 -2 57 8 0 15 5 15 11 0 6 8 9 17 7 14 -2 16 -16 15 -83 0 -44 -2 -82 -3 -85 -1 -3 -1 -13 0 -22 1 -10 -4 -19 -11 -20 -7 0 -20 -2 -28 -3 -8 -1 -20 3 -27 7 -9 7 -11 -67 -10 -304 l2 -312 92 -13 c110 -14 223 -51 321 -104 41 -21 75 -39 78 -39 2 0 4 20 4 44 0 34 -6 52 -25 72 -14 15 -25 31 -25 35 0 14 38 10 43 -3 3 -7 6 106 6 251 l1 263 -55 -51 c-31 -27 -61 -48 -68 -45 -23 9 -59 73 -61 111 -2 21 -3 50 -4 66 -2 24 -6 27 -41 27 -53 0 -66 18 -51 67 20 63 36 81 64 76 20 -4 27 -13 32 -39 3 -19 10 -34 14 -34 5 0 6 -10 2 -22 -3 -13 -1 -19 5 -15 6 4 18 -9 28 -27 12 -22 25 -33 39 -32 17 1 24 15 44 91 18 71 21 97 13 123 -9 32 -9 33 8 18 10 -9 21 -16 24 -16 4 0 7 90 7 200 0 189 -1 201 -20 212 -25 16 -26 30 -2 21 15 -6 15 -5 3 11 -11 13 -12 16 -1 14 9 -2 14 11 16 42 5 69 8 557 5 922 -2 283 -4 327 -17 332 -9 3 -20 4 -25 1 -5 -4 -6 1 -3 9 7 19 -17 21 -34 4 -9 -9 -15 -10 -20 -2 -4 7 -39 -10 -97 -48z m167 -1210 c-6 -6 -8 -16 -6 -23 3 -7 0 -16 -6 -20 -8 -5 -10 3 -7 26 3 19 6 35 6 37 1 2 6 0 12 -4 7 -4 7 -10 1 -16z m-82 -187 c6 -11 6 -22 1 -25 -5 -3 -11 5 -13 19 -6 30 -2 32 12 6z m70 -26 c0 -16 -6 -25 -16 -25 -10 0 -12 4 -7 13 4 6 8 15 9 20 3 15 4 17 9 17 3 0 5 -11 5 -25z m-35 -35 c-3 -4 2 -11 11 -14 8 -3 12 -2 9 4 -3 6 -1 10 4 10 16 0 13 -14 -7 -36 -10 -10 -24 -28 -31 -39 -12 -19 -12 -19 -7 4 2 13 1 34 -4 47 -13 32 -3 59 16 43 8 -6 12 -15 9 -19z m-220 -490 c-3 -5 -1 -19 5 -29 6 -11 13 -50 16 -86 5 -61 3 -66 -18 -74 -18 -6 -26 -4 -38 13 -8 11 -14 24 -12 29 1 4 -1 6 -5 5 -5 -1 -21 4 -36 10 -16 7 -35 12 -43 12 -8 0 -14 5 -14 11 0 5 4 7 10 4 10 -6 20 26 18 57 -1 13 -5 15 -14 7 -9 -8 -16 -4 -24 12 -12 21 -11 21 16 15 68 -16 107 -18 99 -6 -6 9 -1 9 16 -1 21 -11 23 -11 11 3 -10 13 -10 17 0 21 19 8 20 8 13 -3z m-95 -315 c0 -11 -14 7 -31 40 -7 13 -3 12 10 -5 11 -14 21 -29 21 -35z m265 7 c18 -13 32 -67 23 -91 -11 -30 -43 -21 -80 22 l-28 31 22 23 c22 23 45 29 63 15z"/>-->
<path d="M2821 3622 c-96 -48 -106 -181 -20 -245 38 -27 108 -33 148 -13 33 17 74 73 65 88 -10 16 -64 8 -84 -12 -37 -37 -94 -20 -105 31 -12 56 19 98 73 99 7 0 23 -11 36 -25 20 -22 28 -24 50 -15 32 12 34 39 4 68 -48 44 -111 53 -167 24z"/>
<path d="M2440 3485 c0 -162 1 -164 66 -103 18 17 34 26 36 21 3 -4 4 -3 2 3 -1 7 11 24 27 40 l29 28 0 -62 0 -62 40 0 41 0 -3 137 c-2 98 -7 138 -15 141 -7 2 -42 -24 -76 -57 -35 -34 -67 -61 -70 -61 -4 0 -6 19 -6 43 2 77 2 77 -36 77 l-35 0 0 -145z"/>
<path d="M3113 3611 c-88 -55 -81 -204 11 -249 67 -33 176 -2 190 54 4 15 6 28 4 29 -8 8 -68 12 -68 4 0 -5 -11 -16 -25 -25 -63 -41 -126 47 -79 114 20 29 79 31 94 2 8 -14 21 -20 45 -20 45 0 47 26 6 72 -24 27 -36 32 -87 35 -46 3 -66 0 -91 -16z"/>
<!--<path d="M1452 3335 c-238 -159 -263 -179 -300 -250 l-27 -50 -3 -728 -3 -727 30 -6 c31 -7 41 -25 41 -81 0 -30 -3 -33 -31 -33 -31 0 -31 0 -27 50 1 28 0 50 -4 50 -5 0 -8 -124 -8 -276 l0 -276 23 16 c168 123 316 188 478 211 56 7 59 13 59 136 0 81 -1 86 -24 97 -20 9 -27 7 -40 -7 -9 -10 -16 -22 -16 -27 0 -5 -17 -8 -39 -6 -47 5 -71 -22 -71 -81 0 -24 -5 -40 -15 -43 -14 -6 -31 -41 -27 -56 4 -15 -10 -8 -29 15 -24 28 -23 33 2 60 17 18 20 32 17 81 -4 54 -2 61 25 88 l30 29 30 -33 30 -32 38 42 c21 24 41 56 44 73 4 16 13 29 21 29 8 0 14 5 14 10 0 6 -5 10 -11 10 -7 0 -22 11 -34 25 l-23 24 30 -6 c20 -4 33 -1 39 8 13 21 11 123 -3 137 -9 9 -9 12 0 12 9 0 12 186 12 825 -1 453 -4 826 -8 828 -4 2 -103 -60 -220 -138z m-191 -654 c-7 -5 -13 -12 -13 -17 -1 -25 -11 -34 -24 -23 -11 9 -9 15 11 31 18 14 24 26 20 42 -5 19 -4 19 7 -2 9 -19 9 -25 -1 -31z m27 -465 c-10 -7 -18 -18 -18 -25 0 -6 -4 -19 -9 -29 -5 -9 -14 -29 -21 -44 -7 -15 -17 -25 -22 -22 -4 3 -8 0 -8 -5 0 -6 6 -11 13 -11 17 0 19 -36 2 -50 -21 -17 -45 15 -45 62 0 49 23 99 63 139 28 28 31 29 46 14 15 -15 15 -17 -1 -29z m50 -222 c3 -23 -31 -59 -47 -49 -6 3 -11 22 -11 41 0 33 2 35 28 32 18 -2 28 -9 30 -24z m272 -104 c0 -16 7 -30 16 -34 8 -3 12 -11 9 -16 -4 -6 -12 -9 -18 -7 -7 3 -21 -4 -32 -13 -27 -24 -61 -30 -58 -10 8 52 18 78 41 97 29 27 42 22 42 -17z m-230 -85 c16 -42 77 -82 102 -66 24 15 28 14 28 -9 0 -11 -6 -20 -12 -20 -9 0 -8 -4 2 -10 13 -8 12 -10 -3 -10 -22 0 -47 -23 -47 -44 0 -8 -9 -17 -20 -21 -11 -3 -28 -17 -39 -31 l-20 -25 -14 28 c-25 50 -29 95 -11 129 29 53 -3 82 -57 54 -29 -16 -23 5 9 32 40 33 67 31 82 -7z m176 -496 c3 -6 1 -16 -5 -22 -9 -9 -14 -8 -21 3 -5 8 -10 18 -10 23 0 11 28 8 36 -4z m-251 -76 c-18 -44 -54 -78 -68 -64 -12 12 -14 65 -2 70 15 6 80 29 83 30 1 1 -5 -16 -13 -36z"/>-->
<!--<path d="M3390 3302 c-52 -44 -115 -97 -139 -119 l-44 -39 40 -55 c47 -62 123 -209 123 -237 0 -11 7 -32 15 -49 8 -17 21 -84 29 -149 22 -192 -5 -346 -91 -518 -95 -190 -214 -308 -403 -401 -51 -25 -98 -50 -105 -55 -6 -5 -14 -8 -16 -5 -3 2 -22 0 -43 -6 -58 -16 -68 -17 -186 -25 l-110 -7 0 -235 c0 -163 3 -233 10 -226 11 11 107 -7 103 -20 -2 -3 -3 -10 -3 -16 0 -5 -6 -10 -12 -10 -7 0 -13 -10 -14 -22 0 -13 -2 -30 -5 -38 -3 -12 9 -16 58 -18 l62 -3 9 38 c5 21 14 59 20 86 7 26 12 55 12 65 1 23 35 63 52 59 7 -2 10 -2 5 0 -4 3 -5 9 -2 13 3 5 14 1 24 -9 18 -18 20 -18 76 1 45 15 60 16 69 7 8 -9 6 -10 -9 -5 -20 7 -20 7 0 -12 11 -10 25 -17 32 -15 7 3 10 -3 7 -14 -3 -11 10 -35 35 -63 l39 -45 11 25 11 25 -5 -27 c-4 -23 -2 -26 16 -23 12 2 27 9 35 16 8 6 21 9 29 5 8 -3 15 -1 15 5 0 6 5 7 11 4 6 -4 17 2 25 14 9 12 20 19 25 16 5 -4 9 3 9 14 0 17 5 20 29 15 21 -4 30 -2 35 11 3 9 12 15 19 12 8 -3 20 -1 28 5 11 8 9 8 -6 4 -19 -6 -19 -6 -1 9 10 8 22 13 25 11 3 -2 6 6 6 19 0 13 -4 21 -9 17 -5 -3 -7 1 -4 10 3 8 -2 39 -13 69 -28 81 -25 101 20 145 22 21 37 42 34 47 -3 6 -2 7 4 4 9 -6 45 27 38 35 -2 2 6 5 18 5 12 1 24 -2 27 -7 3 -5 45 -27 94 -50 83 -38 89 -39 102 -23 7 10 11 24 9 30 -2 7 -1 12 3 12 21 -3 32 6 64 54 52 75 98 156 98 171 0 7 -31 44 -70 84 -38 39 -70 77 -70 83 0 7 12 47 26 89 l25 77 46 7 c25 3 71 6 102 6 31 0 61 4 67 8 18 12 34 101 37 205 l2 99 -50 20 c-27 11 -61 30 -75 43 -14 12 -34 26 -46 29 -16 5 -21 15 -23 50 -1 24 -6 57 -10 73 -11 38 -6 84 11 95 18 11 140 86 157 96 13 7 11 21 -13 88 -15 43 -44 119 -64 167 l-37 89 -35 -6 c-19 -3 -66 -12 -105 -20 -38 -8 -74 -10 -79 -6 -4 5 -31 44 -60 87 -28 43 -58 79 -66 81 -8 1 -58 -33 -110 -76z m228 -578 c2 -16 -1 -23 -8 -19 -5 3 -10 18 -10 32 0 32 13 22 18 -13z m-416 -1414 c-6 -15 -11 -19 -16 -12 -4 7 -1 18 6 26 17 19 20 14 10 -14z m68 -20 c0 -5 0 -12 0 -15 0 -3 -3 -5 -7 -4 -5 1 -7 6 -5 12 2 6 -3 5 -12 -2 -16 -14 -40 -6 -31 10 8 12 55 12 55 -1z"/>-->
</g>
<g id="layer104" stroke="#ffffff" stroke-width="50">
<!--<path d="M2120 3773 c-36 -24 -72 -47 -80 -51 -24 -10 -40 -29 -40 -49 0 -14 -2 -15 -9 -4 -7 11 -28 1 -97 -45 l-89 -60 -3 -340 -2 -341 27 3 28 4 -27 -11 -28 -11 0 -379 c0 -208 3 -378 8 -377 16 5 93 -57 99 -80 3 -14 1 -49 -4 -79 -8 -43 -7 -56 4 -65 12 -10 9 -15 -19 -29 -18 -10 -43 -18 -56 -19 -33 0 -16 -20 17 -20 15 0 43 -5 60 -11 28 -10 37 -9 61 10 36 26 35 26 49 -6 17 -43 19 -188 3 -188 -8 0 -20 -9 -28 -19 -13 -18 -14 -18 -14 -2 0 34 -62 84 -114 91 l-48 8 31 15 c17 8 31 18 31 23 0 10 -55 49 -69 49 -13 0 -15 -116 -2 -124 4 -3 11 -19 14 -35 4 -20 17 -35 35 -45 36 -19 62 -57 62 -91 0 -24 -2 -25 -15 -11 -8 8 -15 19 -15 24 0 14 -65 82 -78 82 -9 0 -12 -46 -12 -170 0 -93 2 -170 4 -170 3 0 40 -5 83 -11 82 -11 180 -38 276 -75 62 -24 62 -24 57 34 -2 26 33 62 62 62 17 0 18 13 18 242 l0 242 -57 -57 -57 -57 -27 26 c-40 38 -59 85 -59 143 l0 51 -37 0 c-57 0 -67 10 -59 62 9 61 40 108 70 108 37 0 56 -10 56 -29 0 -34 31 -109 54 -130 28 -26 26 -27 56 62 21 66 23 118 5 162 -6 16 -1 13 23 -9 l32 -30 0 200 0 199 -33 16 c-17 9 -42 31 -55 50 -20 28 -22 42 -17 79 4 25 8 47 10 48 11 11 46 -14 65 -45 11 -19 23 -33 26 -31 2 3 4 273 4 602 0 420 -3 601 -11 614 -7 12 -25 18 -52 19 -22 1 -43 6 -46 12 -3 5 -35 -11 -71 -36z m24 -218 c3 -8 12 -12 20 -9 8 3 23 1 33 -5 17 -10 16 -10 -4 -11 -16 0 -21 -4 -17 -15 4 -8 2 -15 -3 -15 -14 0 -63 47 -63 60 0 16 27 12 34 -5z m-5 -71 c8 -7 -9 -34 -21 -34 -21 1 -51 28 -43 39 5 9 51 6 64 -5z m-56 -66 c29 -15 44 -34 69 -87 20 -43 20 -45 3 -58 -17 -11 -17 -14 -3 -30 9 -10 19 -39 22 -65 4 -26 11 -50 17 -53 20 -13 9 -45 -18 -51 -16 -3 -36 -8 -45 -11 -12 -3 -22 4 -30 21 -6 14 -15 26 -19 26 -4 0 -11 9 -14 21 -6 18 -9 19 -23 6 -22 -18 -111 -51 -119 -44 -3 4 -14 36 -24 73 -10 37 -28 77 -39 89 -24 26 -28 95 -6 95 29 0 72 -21 93 -47 14 -17 27 -24 38 -19 15 5 14 9 -4 35 -31 43 -27 66 17 89 44 24 56 26 85 10z m73 -451 c19 -28 23 -57 16 -101 -1 -5 -18 -6 -37 -3 -32 5 -39 1 -80 -41 l-44 -47 -21 21 -21 21 53 26 c57 28 98 83 98 131 0 35 11 33 36 -7z m-174 -292 c13 -18 9 -22 -19 -18 -42 7 -55 12 -50 20 7 12 61 10 69 -2z m208 -184 c0 -4 16 -29 36 -55 46 -61 53 -107 24 -168 -12 -25 -30 -54 -41 -64 -19 -17 -19 -16 -19 32 0 28 -8 65 -17 84 -15 29 -22 123 -13 178 1 7 30 1 30 -7z m-110 -132 c0 -5 -13 -9 -30 -9 -23 0 -30 5 -30 19 0 18 3 19 30 10 17 -6 30 -15 30 -20z m90 -196 c-1 -10 -47 -63 -54 -63 -12 0 -37 50 -31 60 7 11 85 14 85 3z m20 -643 c4 -8 12 -26 19 -38 12 -24 7 -77 -9 -87 -4 -2 -27 1 -51 8 -25 8 -49 12 -56 10 -21 -7 -36 35 -23 67 20 48 103 76 120 40z"/>-->
<!--<path d="M1549 3393 c-34 -23 -35 -25 -25 -58 13 -41 23 -44 36 -10 12 32 36 32 44 1 10 -39 -3 -59 -33 -53 -19 4 -33 -1 -52 -19 l-26 -25 -24 35 c-13 20 -30 38 -37 41 -14 5 -205 -120 -238 -156 -23 -26 -65 -111 -58 -118 2 -3 18 6 35 18 17 13 33 20 36 18 2 -3 7 -25 10 -49 9 -66 103 -179 131 -156 8 7 16 7 25 -1 10 -8 19 -7 33 4 26 20 33 19 46 -9 9 -21 6 -32 -16 -70 -25 -42 -30 -46 -66 -46 -32 0 -43 -6 -64 -32 -13 -18 -28 -45 -31 -60 -6 -25 -12 -28 -46 -28 -34 0 -40 4 -45 27 -6 22 -1 32 24 55 36 31 37 34 20 71 -15 31 -21 32 -68 9 l-35 -17 -2 -588 -3 -588 30 -6 c37 -7 39 -10 49 -72 l8 -49 -44 -11 c-45 -12 -56 -32 -25 -50 16 -10 16 -10 -1 -11 -16 0 -17 -15 -17 -185 1 -102 3 -185 6 -185 3 0 33 20 67 44 122 86 297 159 415 172 51 5 62 10 62 25 4 155 1 193 -16 202 -14 8 -22 4 -39 -17 -16 -20 -30 -26 -58 -26 -40 0 -57 -19 -57 -64 0 -22 5 -26 29 -26 32 0 48 -24 30 -46 -16 -20 -37 -17 -44 6 -3 11 -10 20 -15 20 -18 0 -50 -44 -45 -61 12 -35 -15 -28 -41 11 l-27 41 23 24 c24 25 28 55 15 118 -6 31 -5 37 9 37 9 0 16 4 16 8 0 10 38 52 48 52 4 0 13 -13 20 -29 21 -47 38 -46 77 7 37 51 46 101 20 122 -25 21 -18 37 15 32 32 -5 38 7 43 83 2 36 -1 41 -33 58 l-35 18 -25 -30 c-14 -16 -34 -30 -45 -33 -16 -3 -19 -10 -17 -39 3 -30 -1 -37 -23 -47 -14 -7 -31 -26 -37 -42 -6 -19 -17 -30 -29 -30 -10 0 -24 -9 -31 -20 -18 -28 -35 -25 -51 8 -25 47 -30 100 -12 124 37 53 -4 80 -58 38 -36 -28 -37 -26 -14 25 16 35 28 47 52 54 40 10 65 3 75 -23 8 -20 42 -55 67 -70 16 -9 53 28 53 53 0 11 4 22 9 26 5 3 13 20 17 38 3 17 18 46 33 63 14 17 31 39 37 50 10 16 11 10 12 -33 0 -57 37 -128 53 -102 9 15 13 1202 4 1211 -13 13 -104 -54 -106 -76 0 -12 -58 -61 -63 -55 -2 2 -14 21 -28 42 l-25 37 25 50 c13 27 27 71 30 97 3 27 9 50 13 53 8 6 109 -3 139 -11 20 -5 27 73 8 92 -27 28 -57 76 -63 102 -10 37 -15 38 -56 10z m70 -762 c-49 -55 -59 -60 -59 -32 0 11 -4 23 -10 26 -17 11 -11 32 11 38 12 3 30 0 40 -6 16 -10 21 -8 35 11 9 13 19 21 22 18 3 -3 -15 -28 -39 -55z m-310 -419 c-24 -16 -59 -92 -59 -127 0 -29 16 -41 63 -50 35 -7 37 -9 37 -44 -1 -27 -7 -41 -26 -54 -32 -24 -54 -8 -54 37 0 51 -13 63 -45 42 -15 -10 -31 -14 -35 -9 -15 17 -30 76 -24 102 3 14 7 37 10 49 3 13 26 46 51 73 l46 50 28 -27 c28 -27 29 -27 8 -42z m91 -726 c0 -2 -18 -6 -39 -8 -22 -2 -37 0 -35 4 5 8 74 11 74 4z m-90 -267 c-11 -25 -57 -69 -73 -69 -6 0 -31 90 -26 93 2 2 27 10 54 18 57 18 66 9 45 -42z"/>-->
<!--<path d="M3385 3293 c-93 -75 -105 -88 -92 -100 13 -13 18 -13 38 0 31 19 81 29 96 19 20 -13 31 -55 20 -79 -14 -30 -63 -50 -88 -35 -10 7 -26 12 -34 12 -14 0 -19 12 -16 33 2 13 -10 8 -39 -16 -26 -23 -27 -24 -9 -45 9 -12 27 -22 38 -22 16 0 21 -6 21 -28 0 -76 62 -162 118 -162 42 0 64 -21 60 -55 -2 -24 -8 -30 -28 -30 -41 0 -59 -48 -51 -133 4 -39 9 -73 11 -76 3 -2 20 9 38 25 31 28 32 31 17 51 -19 28 -20 92 -1 107 10 8 19 5 40 -14 27 -25 28 -28 8 -85 -4 -12 -2 -12 8 -3 10 9 18 8 36 -4 l24 -15 0 52 c0 29 -7 67 -16 86 -14 29 -14 41 -4 84 10 41 16 50 34 50 44 0 115 -32 152 -68 l37 -36 -6 33 -7 34 50 -7 c50 -7 77 1 111 31 14 12 15 20 6 49 l-10 34 -88 -3 c-102 -2 -120 8 -138 77 -6 24 -17 49 -26 56 -19 16 -20 50 0 50 20 0 65 -22 65 -32 0 -4 7 -8 16 -8 10 0 14 5 10 15 -3 8 -9 22 -12 30 -4 11 4 16 35 21 31 5 41 11 41 25 0 10 -3 20 -8 22 -15 10 -197 -35 -217 -53 -11 -10 -32 -23 -47 -29 -30 -11 -31 -10 -66 55 -27 52 -28 81 -2 109 21 23 19 49 -5 59 -8 2 -61 -34 -120 -81z m163 -216 c6 -5 12 -18 12 -28 0 -10 9 -21 20 -24 30 -10 50 -34 50 -61 0 -32 -29 -32 -68 1 -41 34 -54 31 -75 -15 -10 -22 -24 -40 -31 -40 -6 0 -30 23 -51 52 -59 77 -59 77 -33 88 13 5 34 18 48 29 20 16 34 19 70 14 25 -3 51 -10 58 -16z"/>-->
<!--<path d="M1127 2973 c-4 -3 -7 -20 -6 -37 l1 -31 9 34 c10 33 8 47 -4 34z"/>-->
<!--<path d="M3620 2731 c0 -4 8 -19 19 -32 10 -13 26 -41 36 -62 21 -46 47 -58 92 -44 34 11 39 24 24 76 -5 20 -21 29 -76 47 -77 26 -95 28 -95 15z"/>-->
<!--<path d="M3666 2537 c17 -74 -4 -135 -63 -183 l-46 -38 -50 54 c-27 30 -56 69 -65 85 l-16 30 -8 -60 c-5 -36 -4 -71 2 -89 16 -47 12 -61 -30 -109 -22 -25 -47 -60 -56 -79 -8 -18 -21 -44 -29 -56 -9 -18 -10 -33 -3 -59 6 -23 6 -45 -1 -64 -8 -24 -7 -31 11 -43 19 -14 24 -13 48 1 26 15 29 15 51 -6 18 -17 35 -21 84 -21 80 0 102 -16 111 -80 5 -41 11 -50 35 -61 37 -15 69 -59 69 -95 l0 -29 25 37 c14 20 25 41 25 46 0 5 7 15 15 22 23 19 18 30 -18 45 -63 26 -72 46 -72 157 l0 99 -41 18 c-23 11 -45 24 -48 30 -15 23 -36 11 -36 -19 0 -38 -21 -90 -46 -112 -18 -16 -22 -15 -77 34 -97 85 -107 130 -42 200 28 31 45 39 89 46 65 10 91 2 114 -38 9 -16 24 -31 32 -31 8 -1 22 -2 31 -3 9 -1 26 -9 38 -20 20 -18 21 -18 28 0 10 28 23 34 76 34 26 0 47 2 47 5 0 23 -55 117 -84 142 -43 37 -47 70 -11 79 32 8 72 -2 103 -26 31 -25 50 -15 24 14 -11 11 -24 31 -31 42 -10 20 -6 24 34 43 25 12 50 21 57 22 7 0 -12 9 -42 20 -34 12 -71 18 -100 15 -25 -2 -50 1 -57 6 -7 6 -29 14 -48 18 l-36 8 7 -31z"/>-->
<!--<path d="M3115 1806 c-22 -11 -42 -24 -45 -27 -15 -18 -52 -30 -64 -20 -8 7 -21 5 -42 -8 -16 -10 -50 -26 -76 -35 -37 -15 -48 -24 -53 -47 -8 -34 -16 -40 -69 -50 -27 -5 -54 -2 -81 7 -40 14 -180 19 -209 8 -14 -5 -16 -34 -16 -218 l0 -211 43 -17 c23 -10 53 -18 66 -18 17 0 22 -4 17 -16 -5 -14 -4 -15 8 -5 10 9 16 9 21 1 10 -16 0 -23 -34 -24 -26 -1 -30 -5 -33 -38 l-4 -38 52 0 c55 0 61 5 71 64 4 25 2 28 -16 23 -21 -5 -38 23 -26 43 8 13 25 3 21 -13 -1 -7 -1 -9 1 -4 3 4 10 4 15 1 7 -4 8 -2 4 4 -4 7 -1 12 8 12 11 0 15 16 18 64 l3 63 -42 -3 c-24 -2 -63 -6 -88 -8 -29 -2 -45 1 -46 8 -5 49 36 115 86 139 20 10 60 17 91 17 l56 0 -7 -30 c-4 -16 -5 -30 -2 -30 2 0 24 16 48 35 24 19 53 35 65 35 11 0 24 4 30 9 5 5 32 11 60 14 l51 6 8 -72 c10 -100 8 -125 -17 -165 l-21 -34 21 -21 22 -21 28 27 c27 26 52 35 52 20 0 -5 4 -15 10 -23 7 -12 12 -12 29 4 30 28 26 36 -19 36 -37 0 -40 2 -40 28 0 16 9 47 20 70 20 41 22 42 70 42 39 0 50 4 55 19 3 10 14 26 24 35 16 15 19 15 31 1 21 -25 32 -17 28 21 -2 21 4 62 14 92 10 30 18 68 18 84 0 26 3 28 23 22 18 -6 16 -1 -13 27 l-35 34 -6 -30 c-14 -70 -118 -255 -144 -255 -6 0 -20 15 -30 34 -11 19 -23 32 -28 29 -6 -4 -7 -1 -3 6 10 15 -2 81 -13 81 -5 0 -25 -16 -46 -36 -29 -27 -44 -34 -69 -32 -28 3 -31 6 -28 33 2 17 11 46 20 65 14 28 24 36 50 38 24 3 32 8 32 23 0 11 7 33 15 49 15 29 32 35 79 30 10 -1 29 1 42 4 23 6 24 7 9 36 -18 35 -17 35 -70 6z m-465 -597 c0 -15 -42 -22 -51 -8 -13 20 -11 27 9 31 18 5 42 -9 42 -23z"/>-->
<!--<path d="M3550 1761 c0 -15 38 -20 44 -5 4 10 -2 14 -19 14 -14 0 -25 -4 -25 -9z"/>-->
</g>
<g id="layer105" stroke="#ffffff" stroke-width="50">
<!--<path d="M2138 3778 c-22 -22 -38 -36 -34 -30 11 18 -6 14 -34 -9 l-25 -20 25 11 25 11 -25 -18 c-14 -10 -37 -30 -51 -44 -20 -22 -29 -25 -43 -17 -13 7 -17 7 -12 0 6 -11 -21 -26 -42 -23 -7 1 -11 -2 -10 -6 2 -4 0 -9 -4 -11 -4 -2 -21 -15 -37 -29 l-30 -27 29 -20 c16 -12 30 -24 30 -27 0 -3 -16 -11 -35 -19 -19 -8 -35 -17 -35 -21 0 -13 44 -18 52 -6 6 9 8 9 8 -1 0 -7 -7 -15 -15 -18 -8 -4 -15 -13 -15 -21 0 -9 -6 -13 -15 -9 -8 3 -22 3 -30 0 -13 -5 -15 -45 -15 -275 0 -259 1 -269 18 -258 13 8 24 9 38 1 16 -9 14 -11 -19 -17 l-37 -7 0 -379 c0 -298 3 -377 13 -374 6 2 29 -10 50 -28 45 -39 60 -87 45 -147 -8 -30 -7 -44 2 -55 10 -13 7 -17 -23 -30 -20 -8 -44 -15 -53 -15 -33 0 -2 -15 54 -26 54 -11 59 -10 88 12 l32 23 10 -27 c16 -42 32 -154 26 -179 -4 -13 -14 -23 -24 -23 -10 0 -21 -8 -25 -17 -5 -15 -10 -11 -26 19 -21 41 -60 66 -111 72 -18 2 -37 4 -41 5 -18 2 4 19 34 25 18 3 29 11 27 18 -4 12 -55 46 -70 47 -5 1 -8 -22 -8 -51 0 -64 32 -133 70 -153 36 -19 62 -74 55 -117 -6 -35 -15 -50 -15 -27 0 28 -46 102 -77 127 l-33 25 1 -174 c0 -96 4 -165 8 -154 8 19 8 19 22 -3 11 -17 22 -22 54 -20 37 1 37 2 8 5 -18 2 -33 7 -33 11 0 4 16 24 36 45 19 20 30 37 24 37 -7 0 -10 6 -7 13 2 6 10 11 16 9 7 -1 10 2 6 7 -7 13 25 30 45 24 11 -3 11 -1 -2 10 -20 16 -14 28 10 20 10 -3 8 2 -5 11 -13 10 -23 22 -23 27 0 5 12 -2 27 -16 29 -26 40 -30 60 -17 10 6 7 17 -12 42 -31 42 -31 44 -1 25 24 -16 24 -15 36 22 16 48 28 63 51 63 10 0 26 11 35 25 15 23 15 26 -8 53 -30 36 -45 73 -53 134 -6 44 -8 47 -43 53 -61 10 -63 13 -48 78 15 62 47 107 78 107 33 0 57 -18 51 -39 -3 -10 0 -22 6 -25 6 -4 11 -19 11 -34 0 -32 42 -88 58 -79 6 4 20 37 32 73 21 64 23 115 5 159 -6 16 -1 13 23 -9 l32 -30 0 202 c0 146 -3 202 -12 202 -20 0 -79 51 -89 78 -6 15 -8 46 -4 70 5 33 10 42 25 42 12 0 31 -17 47 -42 l28 -43 5 220 c3 121 4 356 2 522 l-3 303 -21 -4 c-14 -2 -26 -14 -32 -34 -6 -18 -27 -43 -46 -56 -19 -13 -43 -34 -52 -45 -11 -13 -30 -21 -48 -21 l-31 0 34 -30 c18 -16 42 -47 52 -70 16 -34 16 -44 5 -65 -9 -17 -10 -28 -3 -37 6 -7 13 -30 17 -50 4 -20 13 -50 21 -65 21 -39 20 -41 -22 -52 -57 -16 -66 -14 -92 28 -22 37 -25 38 -50 26 -109 -54 -111 -53 -134 39 -9 33 -27 70 -41 85 -34 36 -38 111 -6 111 34 0 88 -27 100 -49 6 -12 18 -21 26 -21 13 0 13 5 -4 33 -38 62 -37 72 10 88 l43 14 -42 3 c-24 2 -43 7 -43 12 0 5 14 7 30 5 29 -3 30 -2 30 36 0 39 13 52 24 24 3 -8 11 -15 17 -15 8 0 6 7 -4 18 -10 10 -17 23 -17 29 0 14 54 60 80 68 12 4 20 15 20 28 0 12 11 41 25 65 22 40 23 45 9 59 -14 15 -13 18 13 39 15 13 25 23 21 24 -5 0 -27 -19 -50 -42z m18 -807 c17 -27 24 -49 22 -73 -3 -31 -5 -33 -43 -33 -35 0 -45 -6 -75 -42 -19 -23 -40 -42 -46 -42 -11 -1 -50 37 -43 42 2 2 23 11 46 22 53 22 90 70 99 124 4 23 8 41 10 41 2 0 15 -18 30 -39z m-211 -112 c11 -17 0 -20 -21 -4 -17 13 -17 14 -2 15 9 0 20 -5 23 -11z m43 -191 c2 -13 -3 -18 -18 -18 -29 0 -62 19 -54 31 10 17 68 6 72 -13z m236 -225 c52 -77 57 -121 19 -192 -15 -30 -33 -56 -39 -58 -7 -2 -14 19 -18 55 -4 32 -13 67 -20 78 -10 14 -13 42 -11 94 2 41 4 76 4 78 1 1 7 2 14 2 7 0 30 -26 51 -57z m-154 -73 l35 -19 -42 -1 c-36 0 -43 3 -43 20 0 24 5 24 50 0z m99 -220 c-51 -69 -46 -66 -68 -39 -11 13 -20 33 -21 44 0 18 7 20 54 20 l54 0 -19 -25z m-219 -589 c0 -5 -7 -11 -15 -15 -9 -3 -15 0 -15 9 0 8 7 15 15 15 8 0 15 -4 15 -9z"/>-->
<!--<path d="M2170 3780 c-11 -7 -12 -12 -3 -21 13 -13 57 6 48 22 -8 12 -26 11 -45 -1z"/>-->
<!--<path d="M1549 3392 c-23 -15 -25 -20 -16 -52 l9 -35 24 49 c13 28 24 51 24 53 0 8 -17 2 -41 -15z"/>-->
<!--<path d="M1623 3291 c4 -17 0 -23 -21 -28 -15 -4 -35 -6 -45 -4 -11 1 -26 -7 -34 -18 -18 -26 -40 -27 -47 -3 -8 23 -56 70 -56 54 0 -9 -30 -25 -52 -27 -3 0 -10 -4 -15 -9 -5 -6 -2 -6 7 -1 13 8 13 7 1 -9 -8 -9 -22 -15 -31 -13 -9 2 -17 -1 -17 -8 0 -7 7 -11 16 -9 9 2 5 -1 -9 -8 -59 -30 -110 -69 -110 -84 0 -9 -6 -14 -13 -11 -7 2 -17 -6 -23 -18 -10 -21 -9 -23 13 -19 19 4 26 0 30 -16 5 -19 6 -19 19 -3 12 16 12 14 2 -13 -16 -43 -5 -71 48 -132 37 -42 49 -50 60 -41 10 8 18 8 27 1 10 -9 19 -7 37 5 22 15 24 15 41 -6 25 -30 19 -75 -14 -109 -31 -32 -33 -42 -12 -42 8 0 15 -5 15 -11 0 -6 -15 -10 -32 -8 -57 4 -67 0 -83 -31 -9 -16 -13 -30 -10 -30 3 0 -2 -11 -10 -24 -10 -15 -22 -22 -34 -19 -10 3 -22 0 -25 -5 -3 -6 2 -8 13 -5 10 3 22 0 25 -6 4 -6 2 -11 -3 -11 -6 0 -11 -11 -11 -25 0 -14 5 -25 11 -25 5 0 8 -4 5 -9 -3 -5 1 -12 10 -15 8 -3 12 -10 9 -16 -3 -5 -1 -10 5 -10 6 0 20 -20 31 -45 11 -24 24 -47 29 -50 15 -9 12 -25 -5 -25 -8 0 -14 3 -14 8 3 19 -2 33 -11 27 -5 -3 -25 1 -44 9 -33 14 -37 14 -50 -5 -7 -11 -24 -21 -37 -23 -64 -9 -67 -13 -66 -84 0 -59 1 -64 11 -40 8 18 16 24 25 19 10 -7 9 -10 -3 -14 -18 -7 -23 -67 -6 -67 6 0 10 5 10 10 0 6 10 20 21 31 17 17 19 23 8 31 -11 7 -9 8 5 4 19 -7 46 9 46 26 0 6 -6 8 -13 5 -7 -3 -22 2 -32 10 -16 12 -16 14 -3 10 9 -3 38 5 63 19 53 27 70 30 62 10 -3 -8 -2 -37 2 -64 7 -46 6 -49 -20 -65 -21 -12 -32 -31 -47 -79 l-18 -63 35 -13 c19 -7 43 -9 54 -6 17 5 19 2 15 -27 -4 -22 0 -37 9 -44 9 -7 11 -20 7 -43 -6 -29 -19 -36 -19 -11 0 5 -3 9 -7 9 -5 0 -10 0 -13 0 -3 0 -1 -8 4 -19 9 -15 7 -18 -7 -17 -11 0 -18 -7 -20 -21 -3 -20 1 -23 30 -23 29 0 37 -5 50 -32 9 -18 29 -40 44 -50 27 -15 30 -15 49 0 12 10 29 44 39 76 11 33 30 71 43 86 13 15 30 35 38 46 13 17 14 15 15 -26 0 -47 33 -116 50 -105 5 3 9 250 10 606 l1 601 -23 -7 c-22 -6 -127 -112 -128 -127 0 -23 -31 -2 -58 38 l-29 46 25 45 c14 25 28 70 31 102 l6 56 65 -1 c36 0 75 -4 88 -9 20 -7 22 -5 22 34 0 34 -3 41 -19 41 -11 0 -18 6 -17 16 0 9 -5 19 -13 22 -10 3 -12 -1 -8 -17z m-193 -97 c0 -20 -7 -17 -20 6 -9 16 -8 18 5 14 8 -4 15 -12 15 -20z m229 -522 c-7 -10 -31 -36 -53 -59 l-40 -42 -18 41 c-10 22 -16 43 -13 46 3 3 24 6 45 7 23 0 47 8 57 18 20 20 38 11 22 -11z m-268 -35 c-8 -8 -11 -7 -11 4 0 20 13 34 18 19 3 -7 -1 -17 -7 -23z m-44 -57 c2 -17 -1 -19 -19 -9 -17 9 -18 13 -7 20 21 13 25 11 26 -11z m35 -32 c-6 -6 -12 -6 -16 1 -4 6 -2 11 3 11 6 0 12 10 12 23 2 22 2 22 6 -2 3 -13 0 -28 -5 -33z m57 -22 c-9 -8 -10 -7 -5 7 3 10 7 26 7 35 1 9 4 6 6 -7 3 -13 -1 -28 -8 -35z m-38 -26 c5 0 7 -12 3 -27 -3 -16 -2 -23 3 -18 4 6 14 11 21 13 9 2 7 -5 -5 -22 -23 -31 -41 -23 -35 15 3 19 0 34 -8 39 -8 5 -9 13 -4 21 7 11 9 10 12 -3 2 -10 8 -18 13 -18z m114 -90 c4 -6 11 -8 16 -5 14 9 11 -2 -6 -19 -13 -12 -21 -13 -40 -4 -23 10 -23 12 -7 24 21 16 29 17 37 4z m-70 -41 c-5 -14 -3 -19 3 -15 6 3 5 -4 -1 -19 -8 -17 -13 -20 -15 -10 -2 8 -8 13 -13 10 -5 -4 -9 -1 -9 4 0 6 5 11 12 11 6 0 8 3 5 7 -4 3 -2 12 4 20 16 19 21 16 14 -8z m135 -36 c15 -18 14 -19 -39 -42 -56 -24 -65 -25 -56 -11 8 13 -5 13 -25 0 -13 -8 -13 -10 1 -10 9 0 22 -7 29 -15 11 -13 8 -13 -21 -3 -42 14 -41 12 -34 30 4 9 17 14 38 13 43 -3 87 13 87 32 0 8 -5 24 -11 36 -10 21 -10 22 5 2 8 -11 20 -25 26 -32z m-187 -33 c16 -19 16 -20 -3 -20 -13 0 -20 7 -20 20 0 11 1 20 3 20 1 0 10 -9 20 -20z m-56 -172 c-2 -34 -8 -45 -27 -55 -29 -14 -39 -3 -32 33 3 18 11 24 29 24 17 0 23 4 20 14 -5 12 0 26 10 26 1 0 1 -19 0 -42z m35 0 c-6 -6 -15 -8 -19 -4 -4 4 -1 11 7 16 19 12 27 3 12 -12z"/>-->
<!--<path d="M1158 2388 c9 -9 15 -9 24 0 9 9 7 12 -12 12 -19 0 -21 -3 -12 -12z"/>-->
<!--<path d="M1242 1953 c-14 -31 0 -55 20 -35 8 8 8 12 1 12 -6 0 -8 11 -5 25 6 32 0 32 -16 -2z"/>-->
<!--<path d="M1199 1854 c-7 -9 -8 -14 -1 -14 6 0 13 6 15 13 3 6 6 7 6 1 1 -6 15 -9 34 -6 30 4 31 3 12 -11 -11 -8 -17 -18 -13 -22 3 -4 16 3 27 14 l21 21 -28 5 c-15 4 -35 8 -44 10 -10 1 -22 -3 -29 -11z"/>-->
<!--<path d="M1583 1796 c-11 -13 -28 -26 -39 -28 -12 -2 -18 -10 -16 -22 6 -31 -7 -66 -25 -66 -19 0 -42 -28 -43 -52 0 -10 -6 -18 -13 -18 -7 0 -22 -6 -32 -14 -19 -14 -19 -15 -1 -35 25 -28 16 -35 -20 -16 -33 17 -54 19 -54 6 0 -5 -29 -13 -65 -16 l-65 -7 2 -43 1 -43 34 16 c18 9 33 22 33 29 0 7 5 13 11 13 5 0 7 -4 4 -10 -10 -16 7 -12 40 10 36 24 75 26 75 5 0 -18 30 -20 31 -2 2 27 11 72 15 77 8 7 23 -23 17 -34 -3 -5 -1 -6 6 -2 6 4 9 10 7 14 -2 4 6 25 19 47 19 34 27 40 54 38 18 0 39 -9 47 -20 11 -12 14 -13 11 -3 -2 8 -14 21 -28 27 -13 7 -18 13 -11 13 6 0 12 7 12 15 0 18 5 19 32 4 28 -15 44 4 52 63 7 45 6 48 -23 62 -40 21 -46 20 -68 -8z"/>-->
<!--<path d="M1235 1790 c-3 -5 -14 -10 -24 -10 -10 0 -24 -7 -31 -15 -11 -14 -10 -14 14 -5 15 5 32 7 38 4 10 -6 28 12 28 29 0 10 -18 9 -25 -3z"/>-->
<!--<path d="M2238 1677 l-55 -62 13 -38 c8 -23 9 -37 3 -37 -6 0 -7 -5 -4 -10 4 -6 10 -8 14 -5 5 2 16 -4 26 -15 14 -15 18 -38 18 -100 1 -61 4 -80 15 -80 9 0 11 -7 7 -20 -4 -12 0 -26 9 -36 15 -14 16 7 16 225 0 133 -1 241 -3 241 -2 0 -28 -28 -59 -63z"/>-->
<!--<path d="M1190 1684 c0 -17 22 -14 28 4 2 7 -3 12 -12 12 -9 0 -16 -7 -16 -16z"/>-->
<!--<path d="M2150 1576 c0 -8 5 -18 10 -21 6 -3 10 1 10 9 0 8 -4 18 -10 21 -5 3 -10 -1 -10 -9z"/>-->
<!--<path d="M1380 1470 c0 -5 7 -10 15 -10 8 0 15 5 15 10 0 6 -7 10 -15 10 -8 0 -15 -4 -15 -10z"/>-->
<!--<path d="M1623 1444 c4 -6 -3 -20 -14 -30 -19 -17 -19 -19 -2 -25 12 -4 23 1 32 13 12 17 11 22 -4 36 -10 10 -15 12 -12 6z"/>-->
<!--<path d="M1988 1278 c-29 -10 -38 -28 -15 -28 16 0 54 27 47 33 -3 2 -17 0 -32 -5z"/>-->
</g>
<g id="layer106" stroke="#ffffff" stroke-width="50">
<!--<path d="M2150 3789 l-35 -30 38 26 c33 24 43 35 34 35 -1 0 -18 -14 -37 -31z"/>-->
<!--<path d="M2070 3739 l-25 -20 33 16 c17 8 32 18 32 20 0 10 -16 4 -40 -16z"/>-->
<!--<path d="M2289 3658 c-1 -17 -2 -19 -6 -5 -6 23 -20 22 -28 -4 -5 -14 -1 -27 9 -37 11 -12 16 -12 16 -4 0 7 5 10 10 7 6 -4 10 8 10 29 0 39 -9 50 -11 14z"/>-->
<!--<path d="M2824 3626 c-95 -42 -107 -194 -19 -252 62 -40 158 -22 194 37 24 39 20 49 -22 49 -21 0 -36 -7 -45 -20 -8 -13 -23 -20 -42 -20 -63 0 -94 81 -50 128 27 29 63 28 95 -2 45 -42 93 -11 60 40 -31 48 -110 66 -171 40z"/>-->
<!--<path d="M2440 3490 c0 -100 3 -140 12 -140 6 0 42 27 80 61 l68 61 0 -61 0 -61 35 0 35 0 0 140 c0 77 -3 140 -6 140 -4 0 -40 -30 -80 -66 l-74 -66 0 66 0 66 -35 0 -35 0 0 -140z"/>-->
<!--<path d="M3121 3612 c-63 -34 -87 -114 -57 -187 20 -48 68 -75 135 -75 47 0 57 4 87 34 19 19 34 41 34 50 0 23 -56 21 -87 -4 -51 -40 -103 -10 -103 59 0 71 68 101 112 50 22 -25 78 -26 78 -1 0 72 -120 117 -199 74z"/>-->
<!--<path d="M2249 3572 c-5 -13 -9 -27 -9 -31 0 -5 -18 -20 -40 -35 -23 -15 -38 -31 -35 -35 2 -5 -13 -16 -36 -25 l-41 -16 29 -33 c44 -50 59 -92 43 -122 -9 -17 -10 -28 -3 -37 6 -7 14 -31 18 -53 4 -22 10 -44 15 -50 4 -5 11 -20 14 -32 6 -19 2 -23 -31 -32 -58 -16 -66 -14 -92 28 -22 37 -25 38 -50 26 -109 -54 -111 -53 -134 39 -9 33 -27 70 -41 85 -34 36 -38 111 -6 111 34 0 88 -27 100 -49 6 -12 18 -21 26 -21 13 0 13 5 -4 33 -36 59 -36 73 0 84 33 11 33 11 -15 12 -36 1 -47 -2 -42 -11 4 -7 1 -6 -7 2 -9 12 -26 15 -60 12 l-48 -4 0 -269 c0 -259 1 -269 18 -258 13 8 24 9 38 1 16 -9 14 -11 -19 -17 l-37 -7 0 -379 c0 -298 3 -377 13 -374 6 2 29 -10 50 -28 45 -39 60 -87 45 -147 -8 -30 -7 -44 2 -55 10 -13 7 -17 -23 -30 -20 -8 -44 -15 -53 -15 -33 0 -2 -15 54 -26 54 -11 59 -10 88 12 l32 23 10 -27 c16 -42 32 -154 26 -179 -4 -13 -14 -23 -24 -23 -10 0 -21 -8 -25 -17 -5 -15 -10 -11 -26 19 -21 41 -60 66 -111 72 -18 2 -37 4 -41 5 -18 2 4 19 34 25 18 3 29 11 27 18 -4 12 -55 46 -70 47 -5 1 -8 -22 -8 -51 0 -64 32 -133 70 -153 36 -19 62 -74 55 -117 -6 -35 -15 -50 -15 -27 0 28 -46 102 -77 127 l-33 25 1 -174 c0 -96 4 -165 8 -154 8 19 8 19 22 -3 11 -17 22 -22 54 -20 37 1 37 2 8 5 -18 2 -33 7 -33 11 0 4 16 24 36 45 19 20 30 37 24 37 -7 0 -10 6 -7 13 2 6 10 11 16 9 7 -1 10 2 6 7 -7 13 25 30 45 24 11 -3 11 -1 -2 10 -20 16 -14 28 10 20 10 -3 8 2 -5 11 -13 10 -23 22 -23 27 0 5 12 -2 27 -16 29 -26 40 -30 60 -17 10 6 7 17 -12 42 -31 42 -31 44 -1 24 24 -15 25 -15 37 25 14 48 26 60 62 63 14 1 24 4 22 6 -2 3 0 13 6 24 8 15 5 25 -14 47 -29 35 -44 72 -52 133 -6 44 -8 47 -43 53 -61 10 -63 13 -48 78 15 62 47 107 78 107 33 0 57 -18 51 -39 -3 -10 0 -22 6 -25 6 -4 11 -19 11 -34 0 -32 42 -88 58 -79 6 4 20 37 32 73 21 64 23 115 5 159 -6 16 -1 13 23 -9 l32 -30 0 202 c0 146 -3 202 -12 202 -20 0 -79 51 -89 78 -6 15 -8 46 -4 70 5 33 10 42 25 42 12 0 31 -17 47 -42 l28 -43 5 220 c3 121 4 356 2 522 -3 299 -3 302 -23 300 -12 -1 -25 -12 -30 -25z m-93 -601 c17 -27 24 -49 22 -73 -3 -31 -5 -33 -43 -33 -35 0 -45 -6 -75 -42 -19 -23 -40 -42 -46 -42 -11 -1 -50 37 -43 42 2 2 23 11 46 22 53 22 90 70 99 124 4 23 8 41 10 41 2 0 15 -18 30 -39z m-211 -112 c11 -17 0 -20 -21 -4 -17 13 -17 14 -2 15 9 0 20 -5 23 -11z m43 -191 c2 -13 -3 -18 -18 -18 -29 0 -62 19 -54 31 10 17 68 6 72 -13z m236 -225 c52 -77 57 -121 19 -192 -15 -30 -33 -56 -39 -58 -7 -2 -14 19 -18 55 -4 32 -13 67 -20 78 -10 14 -13 42 -11 94 2 41 4 76 4 78 1 1 7 2 14 2 7 0 30 -26 51 -57z m-154 -73 l35 -19 -42 -1 c-36 0 -43 3 -43 20 0 24 5 24 50 0z m99 -220 c-51 -69 -46 -66 -68 -39 -11 13 -20 33 -21 44 0 18 7 20 54 20 l54 0 -19 -25z m-219 -589 c0 -5 -7 -11 -15 -15 -9 -3 -15 0 -15 9 0 8 7 15 15 15 8 0 15 -4 15 -9z"/>-->
<!--<path d="M2692 3420 c0 -19 2 -27 5 -17 2 9 2 25 0 35 -3 9 -5 1 -5 -18z"/>-->
<!--<path d="M1548 3392 c-15 -10 -24 -22 -20 -28 11 -15 30 -11 46 11 29 38 17 46 -26 17z"/>-->
<!--<path d="M3392 3300 l-23 -19 45 -48 c25 -26 46 -51 46 -55 0 -5 6 -8 14 -8 7 0 21 -11 30 -25 11 -17 26 -25 46 -25 17 0 30 5 30 10 0 6 -9 10 -20 10 -11 0 -20 4 -20 10 0 5 -18 22 -40 36 -22 15 -40 32 -40 38 0 15 -34 96 -40 96 -3 -1 -15 -9 -28 -20z"/>-->
<!--<path d="M1591 3259 c-13 -5 -31 -7 -40 -4 -9 3 -21 -3 -28 -15 -14 -21 -19 -19 82 -34 17 -2 40 -7 53 -11 20 -7 22 -4 22 34 0 40 -1 41 -32 40 -18 0 -44 -5 -57 -10z"/>-->
<!--<path d="M1433 3238 c-23 -11 -31 -28 -13 -28 6 0 10 -8 10 -17 -1 -15 -3 -15 -20 5 -18 22 -19 22 -62 6 -24 -10 -47 -20 -53 -24 -5 -4 -22 -10 -37 -14 -35 -8 -65 -70 -46 -93 6 -8 17 -12 23 -9 10 3 10 -2 2 -23 -15 -40 -4 -69 49 -129 37 -42 49 -50 60 -41 10 8 18 8 27 1 10 -9 19 -7 37 5 22 15 24 15 41 -6 25 -30 19 -75 -14 -109 -31 -32 -33 -42 -12 -42 8 0 15 -4 15 -10 0 -5 -9 -10 -20 -10 -11 0 -20 -4 -20 -10 0 -5 -13 -10 -30 -10 -27 0 -33 -7 -64 -69 l-35 -68 40 -64 c21 -35 39 -69 39 -75 0 -6 7 -17 15 -24 19 -16 19 -30 -1 -30 -8 0 -13 4 -9 9 3 5 1 12 -3 15 -5 3 -10 -47 -11 -112 -4 -182 -2 -175 -36 -191 l-29 -14 23 -9 c13 -5 33 -6 44 -2 17 5 19 2 15 -27 -4 -22 0 -37 9 -44 15 -11 7 -79 -8 -69 -5 3 -7 10 -4 15 4 5 2 9 -2 9 -5 0 -15 -15 -23 -32 -7 -18 -15 -36 -18 -40 -2 -5 12 -8 30 -8 29 0 37 -5 50 -32 9 -18 29 -40 44 -50 27 -15 30 -15 49 0 12 10 29 44 39 76 11 33 30 71 43 86 13 15 30 35 38 46 13 17 14 15 15 -26 0 -47 33 -116 50 -105 5 3 9 250 10 606 l1 601 -23 -7 c-22 -6 -127 -112 -128 -127 0 -23 -31 -2 -58 38 l-29 46 25 45 c14 25 28 70 31 101 5 49 3 60 -15 79 -24 26 -21 25 -51 11z m226 -566 c-7 -10 -31 -36 -53 -59 l-40 -42 -18 41 c-10 22 -16 43 -13 46 3 3 24 6 45 7 23 0 47 8 57 18 20 20 38 11 22 -11z m-275 -44 c-14 -15 -16 -22 -6 -25 12 -5 17 -45 6 -56 -3 -3 -22 4 -41 16 -35 20 -35 21 -15 30 12 6 22 16 22 24 0 8 -4 11 -10 8 -5 -3 -10 -1 -10 5 0 6 8 13 18 16 9 3 24 9 32 13 22 13 25 -7 4 -31z m55 -102 c-9 -8 -10 -7 -5 7 3 10 7 26 7 35 1 9 4 6 6 -7 3 -13 -1 -28 -8 -35z m-36 -27 c7 -1 16 -1 20 0 5 1 6 -3 3 -8 -4 -5 -2 -12 4 -16 13 -8 -21 -54 -36 -48 -6 2 -8 18 -6 34 3 19 0 34 -8 39 -8 5 -9 13 -4 21 7 11 9 10 12 -3 2 -10 9 -19 15 -19z m112 -89 c4 -6 11 -7 17 -4 7 4 8 2 4 -4 -4 -6 1 -20 11 -31 28 -30 43 -50 43 -55 0 -2 -25 -14 -55 -27 -41 -17 -52 -26 -44 -35 8 -10 3 -10 -24 -2 -28 8 -35 17 -44 51 -14 51 -9 63 36 92 41 27 47 29 56 15z m-122 -110 c16 -19 16 -20 -3 -20 -13 0 -20 7 -20 20 0 11 1 20 3 20 1 0 10 -9 20 -20z m-21 -172 c-6 -6 -15 -8 -19 -4 -4 4 -1 11 7 16 19 12 27 3 12 -12z"/>-->
<!--<path d="M3327 3093 c-7 -14 5 -93 15 -93 5 0 8 8 6 18 -2 11 3 26 11 35 11 14 11 20 1 32 -14 16 -27 19 -33 8z"/>-->
<!--<path d="M3861 2939 c-18 -21 -39 -39 -47 -39 -7 0 -30 11 -50 25 -20 14 -38 24 -40 23 -1 -2 1 -20 5 -40 4 -23 16 -44 34 -58 l27 -21 0 22 c0 20 3 21 51 16 51 -6 77 1 110 30 14 12 15 20 6 49 -15 48 -51 46 -96 -7z"/>-->
<!--<path d="M3492 2930 c-8 -21 -6 -30 16 -53 24 -25 25 -31 15 -67 -9 -34 -8 -42 8 -56 11 -10 19 -28 19 -41 0 -32 17 -63 35 -63 24 0 19 78 -9 130 -18 35 -21 48 -13 62 9 14 6 23 -14 45 -15 15 -31 37 -37 48 -10 19 -11 19 -20 -5z"/>-->
<!--<path d="M3630 2720 c0 -6 7 -13 15 -16 8 -3 20 -24 27 -46 14 -46 47 -73 80 -64 43 11 50 21 43 58 -6 34 -10 36 -80 57 -85 24 -85 24 -85 11z"/>-->
<!--<path d="M3660 2552 c0 -5 13 -20 29 -34 16 -15 31 -32 33 -38 3 -10 12 -9 35 4 37 19 76 21 105 5 15 -8 28 -7 51 2 l31 13 -30 13 c-16 6 -58 12 -94 13 -37 0 -76 7 -90 15 -28 16 -70 20 -70 7z"/>-->
<!--<path d="M3420 2447 c0 -30 4 -37 20 -37 20 0 20 1 4 33 -23 45 -24 45 -24 4z"/>-->
<!--<path d="M3656 2361 c-3 -4 -19 -11 -35 -14 -29 -6 -30 -8 -19 -37 7 -23 7 -38 0 -55 -14 -30 5 -85 29 -85 18 0 56 108 46 134 -4 9 -2 16 3 16 6 0 10 -4 10 -10 0 -5 12 -13 28 -16 15 -4 44 -15 64 -26 l38 -18 -12 25 c-6 14 -26 34 -45 45 -18 10 -33 27 -33 36 0 12 -3 14 -13 6 -8 -7 -18 -7 -27 -2 -19 12 -27 12 -34 1z"/>-->
<!--<path d="M1190 2326 c0 -19 4 -23 19 -19 21 5 18 28 -5 37 -10 4 -14 -2 -14 -18z"/>-->
<!--<path d="M3397 2225 c-9 -14 -13 -26 -8 -30 6 -3 15 4 21 15 17 31 8 42 -13 15z"/>-->
<!--<path d="M1123 2125 c0 -27 2 -38 4 -22 2 15 2 37 0 50 -2 12 -4 0 -4 -28z"/>-->
<!--<path d="M1270 2126 c0 -8 -3 -22 -7 -32 -4 -11 -3 -15 4 -11 13 8 23 57 12 57 -5 0 -9 -6 -9 -14z"/>-->
<!--<path d="M3305 1950 c-3 -5 1 -13 10 -16 22 -9 29 1 11 15 -10 8 -16 9 -21 1z"/>-->
<!--<path d="M3420 1925 c7 -8 16 -15 21 -15 5 0 9 7 9 15 0 9 -9 15 -21 15 -18 0 -19 -2 -9 -15z"/>-->
<!--<path d="M3627 1868 c-25 -27 -9 -71 42 -118 20 -19 42 -44 48 -54 6 -10 15 -16 22 -12 18 12 12 32 -14 46 -35 19 -56 56 -60 104 -1 22 -3 44 -4 49 -2 12 -15 7 -34 -15z"/>-->
<!--<path d="M1583 1796 c-11 -13 -28 -26 -39 -28 -12 -2 -18 -10 -16 -22 6 -31 -7 -66 -25 -66 -19 0 -42 -28 -43 -52 0 -10 -6 -18 -13 -18 -7 0 -22 -6 -32 -14 -18 -13 -18 -14 2 -39 21 -28 33 -26 33 5 0 23 9 23 27 1 8 -10 12 -13 10 -8 -3 6 5 28 18 50 19 34 27 40 54 38 18 0 39 -9 47 -20 11 -12 14 -13 11 -3 -2 8 -14 21 -28 27 -13 7 -18 13 -11 13 6 0 12 7 12 15 0 18 5 19 32 4 28 -15 44 4 52 63 7 45 6 48 -23 62 -40 21 -46 20 -68 -8z"/>-->
<!--<path d="M1222 1782 l-23 -18 23 0 c22 0 38 12 38 29 0 12 -13 8 -38 -11z"/>-->
<!--<path d="M1279 1754 c-7 -9 -21 -19 -31 -23 -16 -6 -17 -9 -5 -25 12 -16 17 -17 38 -6 24 13 24 13 5 -8 -10 -12 -23 -19 -27 -16 -5 3 -14 2 -19 -1 -13 -8 6 -45 24 -45 7 0 25 -10 40 -21 l27 -22 -6 39 c-3 22 -8 49 -10 60 -3 12 2 27 10 34 8 7 15 21 15 31 0 24 -42 26 -61 3z m31 -13 c0 -5 -6 -11 -13 -14 -8 -3 -14 1 -14 9 0 8 6 14 14 14 7 0 13 -4 13 -9z"/>-->
<!--<path d="M1120 1670 c0 -58 4 -80 13 -80 30 0 57 84 30 94 -7 3 -13 16 -13 30 0 13 -7 26 -15 30 -13 4 -15 -8 -15 -74z"/>-->
<!--<path d="M2238 1677 l-55 -62 14 -40 c7 -21 23 -49 35 -62 17 -19 21 -35 21 -103 1 -61 4 -80 15 -80 9 0 11 -7 7 -20 -4 -12 0 -26 9 -36 15 -14 16 7 16 225 0 133 -1 241 -3 241 -2 0 -28 -28 -59 -63z"/>-->
<!--<path d="M2995 1731 c-3 -6 -25 -11 -49 -11 -47 0 -106 -17 -106 -30 0 -5 29 -8 65 -6 36 2 68 -1 71 -5 7 -12 54 -11 55 1 3 20 4 25 12 38 5 6 4 12 -2 12 -5 0 -16 3 -24 6 -8 3 -18 1 -22 -5z m28 -25 c3 -8 3 -16 0 -19 -7 -8 -32 16 -26 26 7 11 20 8 26 -7z"/>-->
<!--<path d="M3306 1691 c-4 -5 -2 -20 3 -33 9 -21 10 -21 10 10 1 32 -3 39 -13 23z"/>-->
<!--<path d="M1207 1573 c-4 -3 -7 -12 -7 -20 0 -19 27 -16 34 4 5 12 9 14 18 5 14 -14 52 -16 44 -3 -11 18 -60 19 -74 3 -13 -16 -13 -16 -8 1 6 18 4 21 -7 10z"/>-->
<!--<path d="M3246 1550 c-9 -17 -13 -30 -8 -30 9 0 35 50 29 56 -2 2 -11 -10 -21 -26z"/>-->
<!--<path d="M2503 1493 c-24 -8 -43 -19 -43 -24 0 -12 17 -11 25 2 4 6 13 8 20 5 7 -2 21 4 31 15 9 10 15 18 13 18 -2 -1 -23 -8 -46 -16z"/>-->
<!--<path d="M1305 1461 c-19 -6 -106 -49 -114 -57 -8 -8 51 -54 68 -54 10 0 30 -11 44 -24 13 -13 34 -26 46 -29 18 -4 19 -1 14 24 -3 16 0 50 7 76 12 42 12 47 -5 59 -20 15 -29 16 -60 5z"/>-->
<!--<path d="M2563 1293 c-14 -3 -23 -12 -23 -22 0 -10 -11 -30 -25 -45 -14 -15 -25 -29 -25 -30 0 -9 61 -27 82 -24 18 2 22 8 20 29 -1 17 3 29 13 33 20 7 19 52 -1 60 -9 3 -16 5 -17 5 -1 -1 -12 -4 -24 -6z"/>-->
<!--<path d="M3090 1243 c0 -5 6 -17 13 -27 12 -16 14 -16 31 3 16 18 17 21 3 21 -8 0 -22 3 -31 6 -9 3 -16 2 -16 -3z"/>-->
<!--<path d="M1342 1163 c-18 -8 -31 -18 -28 -20 2 -2 21 5 43 16 45 24 33 28 -15 4z"/>-->
<!--<path d="M2550 1085 c0 -22 5 -35 13 -35 9 0 12 11 9 35 -2 19 -8 35 -13 35 -5 0 -9 -16 -9 -35z"/>-->
<!--<path d="M1120 1048 c0 -34 7 -35 45 -4 l29 23 -37 5 c-35 4 -37 2 -37 -24z"/>-->
</g>
<g id="layer107" stroke="#ffffff" stroke-width="50">
<!--<path d="M2809 3613 c-40 -24 -59 -65 -59 -123 0 -47 4 -56 39 -91 36 -36 43 -39 96 -39 52 0 60 3 91 34 43 43 45 66 4 66 -17 0 -33 -6 -36 -14 -3 -8 -19 -20 -35 -27 -26 -10 -34 -9 -57 8 -34 25 -43 94 -16 124 25 27 78 25 106 -5 18 -19 28 -22 46 -15 30 12 28 25 -12 65 -30 30 -40 34 -87 34 -32 0 -65 -7 -80 -17z"/>-->
<!--<path d="M3131 3612 c-51 -25 -73 -61 -74 -120 -1 -58 18 -93 66 -122 60 -37 153 -17 181 39 21 40 21 41 -17 41 -21 0 -36 -7 -45 -20 -19 -31 -75 -27 -101 6 -25 32 -26 55 -6 94 24 47 92 52 115 9 11 -20 70 -28 70 -9 0 43 -71 100 -126 100 -16 0 -44 -8 -63 -18z"/>-->
<!--<path d="M2440 3485 c0 -100 3 -135 12 -135 7 0 43 30 80 67 l68 67 0 -67 0 -67 35 0 35 0 0 135 c0 100 -3 135 -12 135 -7 0 -43 -30 -80 -67 l-68 -67 0 67 0 67 -35 0 -35 0 0 -135z"/>-->
<!--<path d="M2253 3463 l-41 -4 5 -80 c6 -74 5 -79 -14 -79 -26 0 -51 -46 -35 -62 7 -7 12 -23 12 -38 0 -14 7 -37 14 -52 30 -58 26 -70 -33 -86 -47 -14 -54 -14 -62 0 -25 45 -45 61 -65 50 -10 -5 -39 -15 -63 -22 -39 -10 -45 -9 -65 9 -15 14 -25 17 -38 10 -19 -11 -16 -28 14 -71 24 -34 23 -53 -4 -72 l-22 -16 22 0 c19 0 21 -4 16 -25 -4 -18 -2 -25 8 -25 19 0 58 -37 58 -55 0 -11 -8 -13 -30 -9 -22 5 -36 0 -59 -19 -16 -13 -27 -28 -24 -31 4 -3 -5 -6 -20 -6 l-26 0 -1 -313 c0 -172 2 -316 6 -320 3 -3 14 -1 24 5 29 18 50 3 50 -37 0 -29 5 -37 25 -45 18 -7 25 -17 25 -37 1 -26 20 -63 32 -63 3 0 5 7 4 16 0 9 5 19 13 22 10 3 11 -2 6 -18 -5 -15 -4 -20 4 -16 6 4 11 12 11 18 0 6 7 20 17 30 9 11 11 18 5 18 -7 0 -12 9 -12 20 0 11 -5 20 -11 20 -5 0 -7 5 -3 11 4 6 20 8 39 5 22 -4 36 -2 41 6 4 6 3 13 -2 15 -25 9 -38 23 -29 31 6 4 12 18 13 32 1 14 7 42 14 62 l13 38 39 -36 c21 -19 40 -33 42 -31 12 12 5 99 -8 115 -14 15 -16 71 -9 175 1 4 12 7 25 7 24 0 24 2 14 31 -13 38 5 109 27 109 17 0 42 -23 66 -60 16 -24 16 -22 18 48 1 44 -2 72 -9 72 -5 0 -10 7 -10 16 0 8 5 12 10 9 7 -4 10 120 10 364 0 204 -1 370 -2 369 -2 -1 -22 -3 -45 -5z m-223 -470 c0 -20 -3 -24 -11 -16 -7 7 -9 19 -6 27 10 24 17 19 17 -11z m134 -21 c46 -66 31 -122 -33 -122 -32 0 -45 -7 -75 -40 -20 -22 -40 -40 -44 -40 -5 0 -19 11 -31 24 -24 26 -21 46 7 47 27 1 76 33 87 57 5 12 13 22 17 22 5 0 8 10 8 23 0 36 12 67 25 67 7 0 24 -17 39 -38z m-90 -21 c-6 -6 -24 19 -24 34 1 6 7 1 15 -9 8 -11 12 -22 9 -25z m-81 -277 c6 -31 0 -34 -43 -25 -24 5 -36 13 -38 26 -2 17 4 20 37 21 34 2 40 -1 44 -22z m84 -296 c39 -18 43 -23 27 -29 -59 -23 -113 -3 -98 36 8 20 16 19 71 -7z"/>-->
<!--<path d="M3404 3296 c-7 -19 15 -67 35 -74 16 -5 13 18 -9 58 -16 30 -19 33 -26 16z"/>-->
<!--<path d="M1804 3255 c-4 -8 -3 -30 1 -48 3 -17 7 -45 7 -61 1 -27 3 -28 36 -23 19 4 36 8 39 11 9 8 -10 78 -24 89 -8 7 -23 20 -34 30 -17 15 -20 16 -25 2z"/>-->
<!--<path d="M3336 3082 c-3 -6 -1 -14 5 -17 15 -10 25 3 12 16 -7 7 -13 7 -17 1z"/>-->
<!--<path d="M1613 3005 c-27 -27 -32 -38 -24 -53 11 -21 -1 -48 -18 -38 -6 4 -11 2 -11 -3 0 -6 5 -11 10 -11 6 0 9 -3 9 -7 -1 -5 -1 -15 0 -23 1 -13 2 -13 12 0 8 11 9 5 6 -25 -2 -22 -7 -47 -11 -55 -5 -12 5 -20 39 -32 l45 -17 0 149 c0 103 -3 150 -11 150 -6 0 -27 -16 -46 -35z"/>-->
<!--<path d="M1802 2966 c1 -10 8 -17 13 -17 15 1 12 24 -3 29 -9 3 -13 -2 -10 -12z"/>-->
<!--<path d="M3872 2935 c-52 -50 -70 -54 -97 -25 -25 27 -35 25 -35 -7 1 -18 10 -35 26 -46 24 -18 25 -18 22 -1 -3 16 3 18 42 15 25 -1 47 -5 49 -7 8 -7 81 40 81 52 0 23 -19 64 -30 64 -5 0 -31 -20 -58 -45z"/>-->
<!--<path d="M1826 2921 c-3 -5 3 -11 14 -14 13 -3 20 0 20 9 0 15 -26 19 -34 5z"/>-->
<!--<path d="M1535 2849 c-9 -17 -14 -33 -11 -36 3 -3 9 4 14 16 4 12 12 22 17 21 6 0 11 6 13 14 6 28 -17 17 -33 -15z"/>-->
<!--<path d="M1835 2863 c-29 -7 -39 -19 -31 -40 7 -17 8 -17 17 0 6 9 16 17 23 17 8 0 16 7 20 15 6 16 4 16 -29 8z"/>-->
<!--<path d="M3574 2752 c4 -7 3 -12 -2 -12 -20 0 -21 -45 -2 -65 20 -19 20 -19 20 27 0 26 -5 50 -12 54 -7 4 -8 3 -4 -4z"/>-->
<!--<path d="M1480 2691 c0 -5 7 -14 15 -21 8 -7 15 -23 15 -36 0 -13 4 -24 9 -24 13 0 9 73 -4 82 -14 11 -35 10 -35 -1z"/>-->
<!--<path d="M1648 2643 c-22 -24 -22 -30 -3 -49 8 -9 15 -33 15 -55 l0 -40 -24 28 c-23 27 -25 27 -43 10 -22 -19 -33 -22 -33 -7 0 6 6 10 14 10 16 0 38 24 30 32 -8 9 -64 -22 -64 -36 0 -7 -9 -22 -20 -34 -28 -29 -26 -52 4 -52 14 0 28 5 31 11 5 7 13 5 25 -6 17 -16 20 -15 39 4 29 29 36 26 12 -5 -30 -38 -28 -89 4 -110 14 -9 28 -14 31 -12 2 3 3 78 2 168 -3 155 -4 161 -20 143z"/>-->
<!--<path d="M3684 2537 c10 -7 26 -24 36 -38 17 -22 19 -22 26 -6 9 24 -22 57 -54 57 -24 0 -24 -1 -8 -13z"/>-->
<!--<path d="M3800 2520 c-11 -7 -1 -10 35 -10 36 0 46 3 35 10 -8 5 -24 10 -35 10 -11 0 -27 -5 -35 -10z"/>-->
<!--<path d="M2229 2449 c44 -67 52 -95 41 -145 -13 -55 -34 -98 -66 -133 -29 -31 -27 -42 12 -54 16 -5 41 -21 57 -35 l27 -26 0 190 0 190 -37 19 c-21 11 -42 21 -47 24 -6 2 0 -11 13 -30z"/>-->
<!--<path d="M3720 2308 c3 -3 21 -10 40 -17 19 -6 30 -7 25 -2 -6 5 -23 13 -40 17 -16 4 -28 5 -25 2z"/>-->
<!--<path d="M3635 2254 c-12 -25 -14 -39 -6 -47 10 -10 17 1 35 61 12 36 -10 26 -29 -14z"/>-->
<!--<path d="M2093 2224 c0 -19 30 -45 43 -36 7 4 1 15 -16 29 -20 16 -27 18 -27 7z"/>-->
<!--<path d="M1540 2188 c0 -13 4 -29 9 -36 6 -10 11 -6 19 16 8 25 8 32 -5 36 -22 9 -23 8 -23 -16z"/>-->
<!--<path d="M1648 2158 c-9 -18 -24 -50 -33 -70 -15 -32 -20 -36 -36 -27 -13 6 -19 6 -19 -1 0 -5 -4 -10 -10 -10 -5 0 -10 8 -10 19 0 10 -8 21 -18 23 -28 8 -92 -24 -92 -45 0 -10 -7 -20 -15 -23 -9 -4 -15 -19 -15 -39 0 -30 4 -33 40 -43 33 -8 42 -7 49 5 7 13 14 14 39 5 29 -10 33 -8 57 19 26 32 45 31 45 -1 0 -13 5 -17 15 -14 17 7 21 -11 5 -21 -16 -10 -12 -25 5 -19 11 5 15 23 15 73 0 46 -3 62 -10 51 -7 -11 -10 -7 -10 17 0 17 5 33 11 35 6 2 9 24 7 51 l-3 48 -17 -33z"/>-->
<!--<path d="M2208 2021 c-12 -27 -25 -48 -28 -46 -7 4 -10 -14 -10 -53 0 -24 19 -67 20 -45 0 7 6 10 13 7 19 -7 51 104 48 164 -2 36 -18 25 -43 -27z m-8 -86 c0 -14 -4 -25 -10 -25 -5 0 -10 11 -10 25 0 14 5 25 10 25 6 0 10 -11 10 -25z"/>-->
<!--<path d="M1958 1940 c-15 -4 -29 -6 -31 -3 -11 10 -18 -39 -8 -51 13 -16 0 -29 -39 -42 -23 -7 -22 -8 19 -21 25 -7 47 -9 50 -5 4 5 13 11 22 15 12 4 18 21 21 54 6 57 2 63 -34 53z"/>-->
<!--<path d="M2030 1825 c0 -8 5 -17 10 -20 6 -4 17 -21 24 -38 l13 -32 -1 27 c0 16 -4 28 -8 28 -3 0 -4 8 -1 19 3 12 -2 20 -16 24 -14 3 -21 0 -21 -8z"/>-->
<!--<path d="M2281 1693 c0 -5 4 -17 9 -28 8 -18 9 -17 9 8 1 15 -3 27 -9 27 -5 0 -10 -3 -9 -7z"/>-->
<!--<path d="M1850 1670 c0 -6 -6 -8 -12 -4 -7 4 -6 -1 3 -12 9 -10 20 -29 23 -41 4 -13 12 -24 17 -24 28 -5 32 -2 33 23 1 21 -1 24 -11 16 -10 -8 -12 -7 -8 4 4 9 -4 21 -19 32 -15 9 -26 12 -26 6z"/>-->
<!--<path d="M2289 1598 c-6 -18 -5 -56 2 -68 6 -10 8 -1 9 28 0 23 -2 42 -5 42 -3 0 -5 -1 -6 -2z"/>-->
<!--<path d="M2557 1262 c-20 -21 -22 -38 -6 -47 13 -9 49 28 49 50 0 21 -23 19 -43 -3z"/>-->
</g>


</svg>